<svg xmlns="http://www.w3.org/2000/svg" viewBox="0 0 100 100">
  <defs>
    <linearGradient id="body" x1="50" y1="12" x2="50" y2="96" gradientUnits="userSpaceOnUse">
      <stop offset="0" stop-color="#4f46e5"/>
      <stop offset="1" stop-color="#8b5cf6"/>
    </linearGradient>
    <clipPath id="bodyclip">
      <circle cx="50" cy="56" r="37"/>
    </clipPath>
  </defs>
  <path fill="url(#body)" d="M26 33 Q14 16 24 12 Q31 9 44 24 Z"/>
  <path fill="url(#body)" d="M74 33 Q86 16 76 12 Q69 9 56 24 Z"/>
  <circle cx="50" cy="56" r="37" fill="url(#body)"/>
  <g clip-path="url(#bodyclip)">
    <path fill="#4338ca" d="M44 44 Q50 41 56 44 Q55 53 50 58 Q45 53 44 44 Z"/>
    <circle cx="33" cy="40" r="18" fill="#ffffff"/>
    <circle cx="67" cy="40" r="18" fill="#ffffff"/>
    <path fill="#ffffff" d="M16 52 Q11 74 31 87 Q19 70 16 52 Z"/>
    <path fill="#ffffff" d="M84 52 Q89 74 69 87 Q81 70 84 52 Z"/>
  </g>
  <circle cx="33" cy="40" r="10.5" fill="#f9a825"/>
  <circle cx="67" cy="40" r="10.5" fill="#f9a825"/>
  <circle cx="29.5" cy="35.5" r="3" fill="#ffffff"/>
  <circle cx="63.5" cy="35.5" r="3" fill="#ffffff"/>
  <path fill="#f9a825" d="M50 67 Q51.8 74.2 59 76 Q51.8 77.8 50 85 Q48.2 77.8 41 76 Q48.2 74.2 50 67 Z"/>
</svg>
